<svg xmlns="http://www.w3.org/2000/svg" width="684" height="684" viewBox="0 0 513 513">
    <path d="M386 1.1c-11.8 2.3-22.9 11.2-28.3 22.7l-3.2 6.7-.3 48.7-.3 48.6-12.2-5.8c-26.9-12.9-51.7-18.1-85.7-18.1-34.6 0-61.4 5.7-88.5 19-43.8 21.5-72.2 55.5-83.4 99.9-4.4 17.2-5.2 27.1-5.8 69.7-.9 69.3 1.6 91.8 13.6 119.4 8.3 19.4 19.5 35.6 35.6 51.6 12.6 12.6 25.4 21.7 42 30 27.2 13.4 50.8 18.5 86.5 18.5 33.3 0 58.3-5.4 84.5-18 46.6-22.5 78.6-62.9 88.4-111.8 4.6-22.5 4.6-23.1 4.6-191.2V31.5l-3.2-6.7c-5.9-12.6-17-21.4-29.7-23.7-6.7-1.2-8.3-1.2-14.6 0zM282.9 183c28.8 7.1 49.1 22.9 60.6 47.1 8.2 17.3 9.9 33.5 9.2 86.7-.4 28.5-.8 38.4-2.1 44.2-6.8 31.8-22.6 53.5-48.1 66.1-31.4 15.5-74 13.7-101.1-4.3-23-15.4-36.8-40.5-40.4-73.8-2.9-27-2.1-74.4 1.6-95.7 6.7-39 35-65.8 76-72.3 9.8-1.5 34.7-.4 44.3 2z"/>
</svg>
